<?xml version="1.0" encoding="UTF-8" standalone="no"?><!-- Generator: Gravit.io --><svg xmlns="http://www.w3.org/2000/svg" xmlns:xlink="http://www.w3.org/1999/xlink" style="isolation:isolate" viewBox="-527.907471 -1242 1363.907471 1712.467163" width="1363.907471pt" height="1712.467163pt"><linearGradient id="_lgradient_2" x1="3.3306690738754696e-16" y1="1" x2="0.920052596161791" y2="-0.011582514833731405" gradientTransform="matrix(1363.907471,0,0,1712.467163,-527.907471,-1242)" gradientUnits="userSpaceOnUse"><stop offset="0%" stop-opacity="1" style="stop-color:rgb(0,204,255)"/><stop offset="97.3913043478261%" stop-opacity="1" style="stop-color:rgb(255,0,191)"/></linearGradient><path d=" M -499.436 388.103 L 1.688 -897.031 L -527.907 -1192.368 L -527.907 449.51 L -499.436 388.103 L -499.436 388.103 L -499.436 388.103 L -499.436 388.103 L -499.436 388.103 Z  M 76.95 -855.06 L 386.113 -682.65 L 836 -336.206 L 836 -336.206 L 836 -300.54 C 836 124.991 490.523 470.467 64.993 470.467 L -527.907 470.467 L -527.907 461.117 L -527.907 461.117 L -499.436 388.103 L 76.95 -855.06 L 76.95 -855.06 L 76.95 -855.06 L 76.95 -855.06 L 76.95 -855.06 Z  M 26.175 -959.828 L -340.248 -1242 L 58.428 -1242 C 84.181 -1242 109.643 -1240.745 134.747 -1238.26 L 26.175 -959.828 L 26.175 -959.828 L 26.175 -959.828 L 26.175 -959.828 Z  M 245.774 -1219.184 C 584.564 -1135.298 836 -828.994 836 -464.428 L 836 -431.764 L 836 -431.764 L 386.113 -682.65 L 386.113 -682.65 L 99.386 -903.451 L 245.774 -1219.184 L 245.774 -1219.184 L 245.774 -1219.184 Z  M 76.046 -431.764 C 76.046 -474.814 110.997 -509.764 154.046 -509.764 C 197.096 -509.764 232.046 -474.814 232.046 -431.764 C 232.046 -388.715 197.096 -353.764 154.046 -353.764 C 110.997 -353.764 76.046 -388.715 76.046 -431.764 Z " fill-rule="evenodd" fill="url(#_lgradient_2)"/></svg>